<svg width="20" height="18" viewBox="0 0 20 18" fill="none" xmlns="http://www.w3.org/2000/svg">
<path d="M2.75 0C2.02065 0 1.32118 0.289731 0.805456 0.805456C0.289731 1.32118 0 2.02065 0 2.75V11.75C0 12.4793 0.289731 13.1788 0.805456 13.6945C1.32118 14.2103 2.02065 14.5 2.75 14.5H9V16H6.75C6.55109 16 6.36032 16.079 6.21967 16.2197C6.07902 16.3603 6 16.5511 6 16.75C6 16.9489 6.07902 17.1397 6.21967 17.2803C6.36032 17.421 6.55109 17.5 6.75 17.5H12.75C12.9489 17.5 13.1397 17.421 13.2803 17.2803C13.421 17.1397 13.5 16.9489 13.5 16.75C13.5 16.5511 13.421 16.3603 13.2803 16.2197C13.1397 16.079 12.9489 16 12.75 16H10.5V14.5H16.75C17.4793 14.5 18.1788 14.2103 18.6945 13.6945C19.2103 13.1788 19.5 12.4793 19.5 11.75V2.75C19.5 2.02065 19.2103 1.32118 18.6945 0.805456C18.1788 0.289731 17.4793 0 16.75 0H2.75Z" fill="black"/>
</svg>
