<svg width="21" height="20" viewBox="0 0 21 20" fill="none" xmlns="http://www.w3.org/2000/svg">
<path fill-rule="evenodd" clip-rule="evenodd" d="M0 10C0 10.414 0.336 10.75 0.75 10.75H11.723L9.762 12.43C9.68715 12.4941 9.62565 12.5723 9.58102 12.6601C9.53639 12.748 9.5095 12.8438 9.50188 12.942C9.49427 13.0403 9.50608 13.139 9.53664 13.2327C9.5672 13.3264 9.61592 13.4131 9.68 13.488C9.74409 13.5629 9.82229 13.6243 9.91014 13.669C9.99799 13.7136 10.0938 13.7405 10.192 13.7481C10.2903 13.7557 10.389 13.7439 10.4827 13.7134C10.5764 13.6828 10.6631 13.6341 10.738 13.57L14.238 10.57C14.3203 10.4996 14.3864 10.4122 14.4318 10.3138C14.4771 10.2154 14.5006 10.1083 14.5006 10C14.5006 9.89166 14.4771 9.78461 14.4318 9.68622C14.3864 9.58782 14.3203 9.50041 14.238 9.43L10.738 6.43C10.5868 6.30057 10.3904 6.2365 10.192 6.25188C9.9936 6.26726 9.80943 6.36083 9.68 6.512C9.55057 6.66317 9.4865 6.85957 9.50188 7.05798C9.51726 7.25639 9.61083 7.44057 9.762 7.57L11.722 9.25H0.751C0.552088 9.25 0.361322 9.32902 0.22067 9.46967C0.0800176 9.61032 0.00100005 9.80109 0.00100005 10" fill="black"/>
<path d="M7.75 7.75H8.128C7.9628 7.28275 7.95648 6.77403 8.11004 6.30283C8.2636 5.83162 8.56843 5.4243 8.97722 5.1441C9.386 4.86391 9.87585 4.72651 10.3707 4.75326C10.8656 4.78 11.3378 4.96938 11.714 5.292L15.214 8.292C15.4603 8.50323 15.658 8.76524 15.7936 9.06005C15.9292 9.35487 15.9993 9.67551 15.9993 10C15.9993 10.3245 15.9292 10.6451 15.7936 10.9399C15.658 11.2348 15.4603 11.4968 15.214 11.708L11.714 14.708C11.3378 15.0306 10.8656 15.22 10.3707 15.2467C9.87585 15.2735 9.386 15.1361 8.97722 14.8559C8.56843 14.5757 8.2636 14.1684 8.11004 13.6972C7.95648 13.226 7.9628 12.7172 8.128 12.25H7.75V14C7.75 16.828 7.75 18.243 8.629 19.121C9.507 20 10.922 20 13.75 20H14.75C17.578 20 18.993 20 19.871 19.121C20.75 18.243 20.75 16.828 20.75 14V6C20.75 3.172 20.75 1.757 19.871 0.879C18.993 -5.96046e-08 17.578 0 14.75 0H13.75C10.922 0 9.507 -5.96046e-08 8.629 0.879C7.75 1.757 7.75 3.172 7.75 6V7.75Z" fill="black"/>
</svg>
