<svg width="20" height="21" viewBox="0 0 20 21" fill="none" xmlns="http://www.w3.org/2000/svg">
<path fill-rule="evenodd" clip-rule="evenodd" d="M3.25 8.805V6.75C3.25 4.95979 3.96116 3.2429 5.22703 1.97703C6.4929 0.711159 8.20979 0 10 0C11.7902 0 13.5071 0.711159 14.773 1.97703C16.0388 3.2429 16.75 4.95979 16.75 6.75V8.805C17.865 8.888 18.59 9.098 19.121 9.629C20 10.507 20 11.922 20 14.75C20 17.578 20 18.993 19.121 19.871C18.243 20.75 16.828 20.75 14 20.75H6C3.172 20.75 1.757 20.75 0.879 19.871C-5.96046e-08 18.993 0 17.578 0 14.75C0 11.922 -5.96046e-08 10.507 0.879 9.629C1.409 9.098 2.135 8.888 3.25 8.805ZM4.75 6.75C4.75 5.35761 5.30312 4.02226 6.28769 3.03769C7.27226 2.05312 8.60761 1.5 10 1.5C11.3924 1.5 12.7277 2.05312 13.7123 3.03769C14.6969 4.02226 15.25 5.35761 15.25 6.75V8.754C14.8673 8.75067 14.4507 8.74933 14 8.75H6C5.54867 8.74933 5.132 8.75067 4.75 8.754V6.75ZM10 12C10.1989 12 10.3897 12.079 10.5303 12.2197C10.671 12.3603 10.75 12.5511 10.75 12.75V16.75C10.75 16.9489 10.671 17.1397 10.5303 17.2803C10.3897 17.421 10.1989 17.5 10 17.5C9.80109 17.5 9.61032 17.421 9.46967 17.2803C9.32902 17.1397 9.25 16.9489 9.25 16.75V12.75C9.25 12.5511 9.32902 12.3603 9.46967 12.2197C9.61032 12.079 9.80109 12 10 12Z" fill="black"/>
</svg>
