<svg width="21" height="21" viewBox="0 0 21 21" fill="none" xmlns="http://www.w3.org/2000/svg">
<path fill-rule="evenodd" clip-rule="evenodd" d="M0 4.75C-9.29503e-09 4.12622 0.122862 3.50855 0.361572 2.93225C0.600282 2.35596 0.950164 1.83232 1.39124 1.39124C1.83232 0.950165 2.35596 0.600282 2.93225 0.361572C3.50855 0.122863 4.12622 0 4.75 0C5.37378 0 5.99145 0.122863 6.56775 0.361572C7.14404 0.600282 7.66768 0.950165 8.10876 1.39124C8.54984 1.83232 8.89972 2.35596 9.13843 2.93225C9.37714 3.50855 9.5 4.12622 9.5 4.75C9.5 6.00978 8.99955 7.21796 8.10876 8.10876C7.21796 8.99955 6.00978 9.5 4.75 9.5C3.49022 9.5 2.28204 8.99955 1.39124 8.10876C0.500445 7.21796 1.87722e-08 6.00978 0 4.75ZM11 15.75C11 14.4902 11.5004 13.282 12.3912 12.3912C13.282 11.5004 14.4902 11 15.75 11C17.0098 11 18.218 11.5004 19.1088 12.3912C19.9996 13.282 20.5 14.4902 20.5 15.75C20.5 17.0098 19.9996 18.218 19.1088 19.1088C18.218 19.9996 17.0098 20.5 15.75 20.5C14.4902 20.5 13.282 19.9996 12.3912 19.1088C11.5004 18.218 11 17.0098 11 15.75ZM20.5 4.75C20.5 3.49022 19.9996 2.28204 19.1088 1.39124C18.218 0.500445 17.0098 1.19209e-07 15.75 1.19209e-07C14.4902 1.19209e-07 13.282 0.500445 12.3912 1.39124C11.5004 2.28204 11 3.49022 11 4.75C11 6.00978 11.5004 7.21796 12.3912 8.10876C13.282 8.99955 14.4902 9.5 15.75 9.5C17.0098 9.5 18.218 8.99955 19.1088 8.10876C19.9996 7.21796 20.5 6.00978 20.5 4.75ZM9.5 15.75C9.5 15.1262 9.37714 14.5086 9.13843 13.9323C8.89972 13.356 8.54984 12.8323 8.10876 12.3912C7.66768 11.9502 7.14404 11.6003 6.56775 11.3616C5.99145 11.1229 5.37378 11 4.75 11C4.12622 11 3.50855 11.1229 2.93225 11.3616C2.35596 11.6003 1.83232 11.9502 1.39124 12.3912C0.950164 12.8323 0.600282 13.356 0.361572 13.9323C0.122862 14.5086 -9.29503e-09 15.1262 0 15.75C1.87722e-08 17.0098 0.500445 18.218 1.39124 19.1088C2.28204 19.9996 3.49022 20.5 4.75 20.5C6.00978 20.5 7.21796 19.9996 8.10876 19.1088C8.99955 18.218 9.5 17.0098 9.5 15.75Z" fill="black"/>
</svg>
