<svg width="20" height="20" viewBox="0 0 20 20" fill="none" xmlns="http://www.w3.org/2000/svg">
<path fill-rule="evenodd" clip-rule="evenodd" d="M14 4H6C3.172 4 1.757 4 0.879 4.879C-5.96046e-08 5.757 0 7.172 0 10C0 12.828 -5.96046e-08 14.243 0.879 15.121C1.373 15.616 2.037 15.832 3.028 15.927C3 15.204 3 14.352 3 13.5C2.86739 13.5 2.74021 13.4473 2.64645 13.3536C2.55268 13.2598 2.5 13.1326 2.5 13C2.5 12.8674 2.55268 12.7402 2.64645 12.6464C2.74021 12.5527 2.86739 12.5 3 12.5H17C17.1326 12.5 17.2598 12.5527 17.3536 12.6464C17.4473 12.7402 17.5 12.8674 17.5 13C17.5 13.1326 17.4473 13.2598 17.3536 13.3536C17.2598 13.4473 17.1326 13.5 17 13.5C17 14.352 17 15.204 16.972 15.927C17.962 15.832 18.627 15.616 19.122 15.121C20 14.243 20 12.828 20 10C20 7.172 20 5.757 19.121 4.879C18.243 4 16.828 4 14 4ZM7 8.75C7.19891 8.75 7.38968 8.67098 7.53033 8.53033C7.67098 8.38968 7.75 8.19891 7.75 8C7.75 7.80109 7.67098 7.61032 7.53033 7.46967C7.38968 7.32902 7.19891 7.25 7 7.25H4C3.80109 7.25 3.61032 7.32902 3.46967 7.46967C3.32902 7.61032 3.25 7.80109 3.25 8C3.25 8.19891 3.32902 8.38968 3.46967 8.53033C3.61032 8.67098 3.80109 8.75 4 8.75H7ZM15 9C15.2652 9 15.5196 8.89464 15.7071 8.70711C15.8946 8.51957 16 8.26522 16 8C16 7.73478 15.8946 7.48043 15.7071 7.29289C15.5196 7.10536 15.2652 7 15 7C14.7348 7 14.4804 7.10536 14.2929 7.29289C14.1054 7.48043 14 7.73478 14 8C14 8.26522 14.1054 8.51957 14.2929 8.70711C14.4804 8.89464 14.7348 9 15 9Z" fill="black"/>
<path d="M15.121 0.879C14.242 -5.96046e-08 12.828 0 10 0C7.172 0 5.757 -5.96046e-08 4.878 0.879C4.386 1.371 4.17 2.032 4.074 3.015C4.634 3 5.252 3 5.93 3H14.072C14.749 3 15.367 3 15.926 3.015C15.831 2.032 15.613 1.371 15.121 0.879ZM16 13.5C16 16.328 16 18.243 15.121 19.121C14.243 20 12.828 20 10 20C7.172 20 5.757 20 4.879 19.121C4 18.243 4 16.328 4 13.5H16Z" fill="black"/>
</svg>
